<?xml version="1.0" encoding="utf-8"?>
<!-- Generator: Adobe Illustrator 25.3.1, SVG Export Plug-In . SVG Version: 6.00 Build 0)  -->
<svg version="1.1" id="Capa_1" xmlns="http://www.w3.org/2000/svg" xmlns:xlink="http://www.w3.org/1999/xlink" x="0px" y="0px"
	 viewBox="0 0 50 50" style="enable-background:new 0 0 50 50;" xml:space="preserve">
<g>
	<path d="M9.3,23.9c1-7.1,4.7-11.8,11.4-13.9c0.8-0.2,1.6-0.4,2.4-0.5c0.7,0,0.8-0.4,0.8-1c0-1.6,0-3.2,0-4.7c0-0.6,0.2-1.2,0.9-1.3
		c0.7-0.1,1.2,0.3,1.2,1.2c0,1.6,0,3.1,0,4.7c0,0.7,0.1,1,1,1.1c7,0.9,12.7,6.6,13.5,13.6c0.1,0.7,0.4,0.8,1,0.8c1.6,0,3.1,0,4.7,0
		c0.7,0,1.4,0.2,1.4,1.1c0,0.9-0.7,1.1-1.4,1.1c-1.8,0-3.6,0-5.4,0c-0.2,1-0.3,1.8-0.5,2.6c-1.5,6.3-6.9,11-13.3,11.8
		c-0.7,0.1-0.8,0.4-0.8,1c0,1.5,0,3,0,4.6c0,0.8-0.1,1.5-1.1,1.5c-1,0-1-0.8-1.1-1.5c0-1.8,0-3.5,0-5.3c-1-0.2-1.8-0.3-2.7-0.5
		C15,38.7,10.3,33.3,9.5,27c-0.1-0.8-0.4-0.9-1.1-0.9c-1.5,0-3,0-4.5,0c-0.8,0-1.5-0.1-1.5-1.1c0-1,0.8-1.1,1.5-1.1
		C5.8,23.9,7.6,23.9,9.3,23.9z M38.5,25c0-7.5-6-13.5-13.5-13.5c-7.4,0-13.4,6-13.4,13.4c0,7.4,6,13.5,13.4,13.5
		C32.4,38.5,38.5,32.5,38.5,25z"/>
	<path d="M33.3,25c0,4.6-3.8,8.3-8.4,8.3c-4.6,0-8.3-3.8-8.3-8.4c0-4.6,3.8-8.3,8.4-8.3C29.6,16.7,33.3,20.4,33.3,25z M25,18.8
		c-3.4,0-6.2,2.8-6.2,6.2c0,3.4,2.8,6.2,6.1,6.2c3.4,0,6.3-2.7,6.3-6.1C31.2,21.6,28.4,18.8,25,18.8z"/>
</g>
</svg>
